<svg width="145" height="130" viewBox="0 0 145 130" fill="none" xmlns="http://www.w3.org/2000/svg">
<rect width="145" height="130" fill="#5F5F5F"/>
<path d="M58.768 105.4C58.768 104.301 59.008 103.32 59.488 102.456C59.968 101.581 60.624 100.904 61.456 100.424C62.288 99.9333 63.216 99.688 64.24 99.688C65.488 99.688 66.5547 99.9867 67.44 100.584C68.336 101.171 68.9867 102.003 69.392 103.08H68.08C67.76 102.323 67.2693 101.731 66.608 101.304C65.9573 100.877 65.168 100.664 64.24 100.664C63.4187 100.664 62.6773 100.856 62.016 101.24C61.3653 101.624 60.8533 102.179 60.48 102.904C60.1067 103.619 59.92 104.451 59.92 105.4C59.92 106.349 60.1067 107.181 60.48 107.896C60.8533 108.611 61.3653 109.16 62.016 109.544C62.6773 109.928 63.4187 110.12 64.24 110.12C65.168 110.12 65.9573 109.912 66.608 109.496C67.2693 109.069 67.76 108.483 68.08 107.736H69.392C68.9867 108.803 68.336 109.629 67.44 110.216C66.544 110.803 65.4773 111.096 64.24 111.096C63.216 111.096 62.288 110.856 61.456 110.376C60.624 109.885 59.968 109.208 59.488 108.344C59.008 107.48 58.768 106.499 58.768 105.4ZM74.6318 111.128C73.6291 111.128 72.8078 110.899 72.1678 110.44C71.5384 109.971 71.1864 109.336 71.1118 108.536H72.2638C72.3171 109.027 72.5464 109.427 72.9518 109.736C73.3678 110.035 73.9224 110.184 74.6158 110.184C75.2238 110.184 75.6984 110.04 76.0398 109.752C76.3918 109.464 76.5678 109.107 76.5678 108.68C76.5678 108.381 76.4718 108.136 76.2798 107.944C76.0878 107.752 75.8424 107.603 75.5438 107.496C75.2558 107.379 74.8611 107.256 74.3598 107.128C73.7091 106.957 73.1811 106.787 72.7758 106.616C72.3704 106.445 72.0238 106.195 71.7358 105.864C71.4584 105.523 71.3198 105.069 71.3198 104.504C71.3198 104.077 71.4478 103.683 71.7038 103.32C71.9598 102.957 72.3224 102.669 72.7918 102.456C73.2611 102.243 73.7944 102.136 74.3918 102.136C75.3304 102.136 76.0878 102.376 76.6638 102.856C77.2398 103.325 77.5491 103.976 77.5918 104.808H76.4718C76.4398 104.296 76.2371 103.885 75.8638 103.576C75.5011 103.256 74.9998 103.096 74.3598 103.096C73.7944 103.096 73.3358 103.229 72.9838 103.496C72.6318 103.763 72.4557 104.093 72.4557 104.488C72.4557 104.829 72.5571 105.112 72.7598 105.336C72.9731 105.549 73.2344 105.72 73.5438 105.848C73.8531 105.965 74.2691 106.099 74.7918 106.248C75.4211 106.419 75.9224 106.584 76.2958 106.744C76.6691 106.904 76.9891 107.139 77.2558 107.448C77.5224 107.757 77.6611 108.168 77.6718 108.68C77.6718 109.149 77.5438 109.571 77.2878 109.944C77.0318 110.307 76.6744 110.595 76.2158 110.808C75.7571 111.021 75.2291 111.128 74.6318 111.128ZM82.788 111.128C81.7853 111.128 80.964 110.899 80.324 110.44C79.6947 109.971 79.3427 109.336 79.268 108.536H80.42C80.4733 109.027 80.7027 109.427 81.108 109.736C81.524 110.035 82.0787 110.184 82.772 110.184C83.38 110.184 83.8547 110.04 84.196 109.752C84.548 109.464 84.724 109.107 84.724 108.68C84.724 108.381 84.628 108.136 84.436 107.944C84.244 107.752 83.9987 107.603 83.7 107.496C83.412 107.379 83.0173 107.256 82.516 107.128C81.8653 106.957 81.3373 106.787 80.932 106.616C80.5267 106.445 80.18 106.195 79.892 105.864C79.6147 105.523 79.476 105.069 79.476 104.504C79.476 104.077 79.604 103.683 79.86 103.32C80.116 102.957 80.4787 102.669 80.948 102.456C81.4173 102.243 81.9507 102.136 82.548 102.136C83.4867 102.136 84.244 102.376 84.82 102.856C85.396 103.325 85.7053 103.976 85.748 104.808H84.628C84.596 104.296 84.3933 103.885 84.02 103.576C83.6573 103.256 83.156 103.096 82.516 103.096C81.9507 103.096 81.492 103.229 81.14 103.496C80.788 103.763 80.612 104.093 80.612 104.488C80.612 104.829 80.7133 105.112 80.916 105.336C81.1293 105.549 81.3907 105.72 81.7 105.848C82.0093 105.965 82.4253 106.099 82.948 106.248C83.5773 106.419 84.0787 106.584 84.452 106.744C84.8253 106.904 85.1453 107.139 85.412 107.448C85.6787 107.757 85.8173 108.168 85.828 108.68C85.828 109.149 85.7 109.571 85.444 109.944C85.188 110.307 84.8307 110.595 84.372 110.808C83.9133 111.021 83.3853 111.128 82.788 111.128Z" fill="#EEEEEE"/>
<path d="M52.1783 86.2321L48 34H98.14L93.9617 86.2321L73.07 92.5L52.1783 86.2321Z" fill="#1172B8"/>
<path d="M93.9616 38.1786H73.0699V89.3661L89.7833 84.1428L93.9616 38.1786Z" fill="#33AADD"/>
<path d="M80.3821 64.2946H59.4904L58.4458 56.9821L75.1592 51.7589H58.4458L57.4012 45.4911H89.7833L88.7387 52.8036L75.1592 58.0268H87.6942L85.605 77.875L73.07 82.0536L60.535 77.875L59.4904 67.4286H65.7579L66.8025 72.6518L73.07 74.7411L79.3375 72.6518L80.3821 64.2946Z" fill="white"/>
</svg>
