<svg width="146" height="130" viewBox="0 0 146 130" fill="none" xmlns="http://www.w3.org/2000/svg">
<rect width="146" height="130" fill="#5F5F5F"/>
<path d="M103 81.8785C102.127 82.2088 101.163 82.2081 100.29 81.8765C99.4174 81.5449 98.6961 80.9053 98.2625 80.0785L89.6375 68.151L88.3875 66.4835L78.38 80.0935C77.9725 80.8856 77.2904 81.5022 76.4613 81.828C75.6322 82.1537 74.7128 82.1664 73.875 81.8635L86.77 64.5635L74.775 48.936C75.6375 48.6252 76.5808 48.6211 77.4459 48.9243C78.3111 49.2276 79.0453 49.8197 79.525 50.601L88.465 62.676L97.455 50.651C97.8657 49.873 98.548 49.273 99.3721 48.9651C100.196 48.6572 101.105 48.6628 101.925 48.981L97.27 55.1585L90.965 63.366C90.7899 63.5222 90.6498 63.7136 90.5539 63.9278C90.458 64.1419 90.4084 64.3739 90.4084 64.6085C90.4084 64.8431 90.458 65.0751 90.5539 65.2893C90.6498 65.5034 90.7899 65.6948 90.965 65.851L102.975 81.881L103 81.8785ZM43.005 64.3485L44.055 59.161C46.94 48.9035 58.7 44.636 66.79 50.986C71.5275 54.7085 72.71 59.9785 72.4775 65.9185H45.79C45.3575 76.526 53.0125 82.931 62.8 79.6585C64.3867 79.0874 65.8069 78.1316 66.9334 76.8768C68.06 75.622 68.8576 74.1073 69.255 72.4685C69.7725 70.8035 70.625 70.5185 72.19 70.9985C71.9292 73.0295 71.2113 74.9748 70.0902 76.6883C68.9691 78.4018 67.4741 79.8387 65.7175 80.891C62.8161 82.4781 59.4871 83.1071 56.2066 82.6882C52.9261 82.2693 49.862 80.8238 47.4525 78.5585C45.0701 75.877 43.6302 72.4897 43.3525 68.9135C43.3525 68.326 43.1525 67.776 43.0175 67.2485C43.0054 66.2827 42.9995 65.3169 43 64.351L43.005 64.3485ZM45.8225 63.6335H69.9575C69.8075 55.9435 64.955 50.4885 58.4825 50.4385C51.2775 50.3385 46.1225 55.6735 45.805 63.5985L45.8225 63.6335Z" fill="#EEEEEE"/>
<path d="M45.4 100.728V104.904H49.64V105.832H45.4V110.072H50.12V111H44.28V99.8H50.12V100.728H45.4ZM56.9029 111L54.6469 107.48L52.4709 111H51.2869L54.1029 106.632L51.3189 102.264H52.5829L54.8069 105.736L56.9669 102.264H58.1349L55.3509 106.584L58.1669 111H56.9029ZM60.7903 104.184C61.0676 103.597 61.5049 103.112 62.1023 102.728C62.7103 102.333 63.4303 102.136 64.2623 102.136C65.0516 102.136 65.7609 102.323 66.3903 102.696C67.0303 103.059 67.5263 103.581 67.8783 104.264C68.2409 104.936 68.4223 105.72 68.4223 106.616C68.4223 107.512 68.2409 108.301 67.8783 108.984C67.5263 109.667 67.0303 110.195 66.3903 110.568C65.7609 110.941 65.0516 111.128 64.2623 111.128C63.4409 111.128 62.7263 110.936 62.1183 110.552C61.5103 110.157 61.0676 109.667 60.7903 109.08V115.128H59.6863V102.264H60.7903V104.184ZM67.2863 106.616C67.2863 105.891 67.1423 105.267 66.8542 104.744C66.5769 104.211 66.1929 103.805 65.7023 103.528C65.2116 103.251 64.6569 103.112 64.0383 103.112C63.4409 103.112 62.8916 103.256 62.3903 103.544C61.8996 103.832 61.5103 104.243 61.2223 104.776C60.9343 105.309 60.7903 105.928 60.7903 106.632C60.7903 107.336 60.9343 107.955 61.2223 108.488C61.5103 109.021 61.8996 109.432 62.3903 109.72C62.8916 110.008 63.4409 110.152 64.0383 110.152C64.6569 110.152 65.2116 110.013 65.7023 109.736C66.1929 109.448 66.5769 109.037 66.8542 108.504C67.1423 107.96 67.2863 107.331 67.2863 106.616ZM71.6031 103.816C71.8485 103.272 72.2218 102.851 72.7231 102.552C73.2351 102.253 73.8591 102.104 74.5951 102.104V103.272H74.2911C73.4805 103.272 72.8298 103.491 72.3391 103.928C71.8485 104.365 71.6031 105.096 71.6031 106.12V111H70.4831V102.264H71.6031V103.816ZM84.184 106.184C84.184 106.568 84.1733 106.861 84.152 107.064H76.904C76.936 107.725 77.096 108.291 77.384 108.76C77.672 109.229 78.0507 109.587 78.52 109.832C78.9893 110.067 79.5013 110.184 80.056 110.184C80.7813 110.184 81.3893 110.008 81.88 109.656C82.3813 109.304 82.712 108.829 82.872 108.232H84.056C83.8427 109.085 83.384 109.784 82.68 110.328C81.9867 110.861 81.112 111.128 80.056 111.128C79.2347 111.128 78.4987 110.947 77.848 110.584C77.1973 110.211 76.6853 109.688 76.312 109.016C75.9493 108.333 75.768 107.539 75.768 106.632C75.768 105.725 75.9493 104.931 76.312 104.248C76.6747 103.565 77.1813 103.043 77.832 102.68C78.4827 102.317 79.224 102.136 80.056 102.136C80.888 102.136 81.6133 102.317 82.232 102.68C82.8613 103.043 83.3413 103.533 83.672 104.152C84.0133 104.76 84.184 105.437 84.184 106.184ZM83.048 106.152C83.0587 105.501 82.9253 104.947 82.648 104.488C82.3813 104.029 82.0133 103.683 81.544 103.448C81.0747 103.213 80.5627 103.096 80.008 103.096C79.176 103.096 78.4667 103.363 77.88 103.896C77.2933 104.429 76.968 105.181 76.904 106.152H83.048ZM89.2411 111.128C88.2385 111.128 87.4171 110.899 86.7771 110.44C86.1478 109.971 85.7958 109.336 85.7211 108.536H86.8731C86.9265 109.027 87.1558 109.427 87.5611 109.736C87.9771 110.035 88.5318 110.184 89.2251 110.184C89.8331 110.184 90.3078 110.04 90.6491 109.752C91.0011 109.464 91.1771 109.107 91.1771 108.68C91.1771 108.381 91.0811 108.136 90.8891 107.944C90.6971 107.752 90.4518 107.603 90.1531 107.496C89.8651 107.379 89.4705 107.256 88.9691 107.128C88.3185 106.957 87.7905 106.787 87.3851 106.616C86.9798 106.445 86.6331 106.195 86.3451 105.864C86.0678 105.523 85.9291 105.069 85.9291 104.504C85.9291 104.077 86.0571 103.683 86.3131 103.32C86.5691 102.957 86.9318 102.669 87.4011 102.456C87.8705 102.243 88.4038 102.136 89.0011 102.136C89.9398 102.136 90.6971 102.376 91.2731 102.856C91.8491 103.325 92.1585 103.976 92.2011 104.808H91.0811C91.0491 104.296 90.8465 103.885 90.4731 103.576C90.1105 103.256 89.6091 103.096 88.9691 103.096C88.4038 103.096 87.9451 103.229 87.5931 103.496C87.2411 103.763 87.0651 104.093 87.0651 104.488C87.0651 104.829 87.1665 105.112 87.3691 105.336C87.5825 105.549 87.8438 105.72 88.1531 105.848C88.4625 105.965 88.8785 106.099 89.4011 106.248C90.0305 106.419 90.5318 106.584 90.9051 106.744C91.2785 106.904 91.5985 107.139 91.8651 107.448C92.1318 107.757 92.2705 108.168 92.2811 108.68C92.2811 109.149 92.1531 109.571 91.8971 109.944C91.6411 110.307 91.2838 110.595 90.8251 110.808C90.3665 111.021 89.8385 111.128 89.2411 111.128ZM97.3974 111.128C96.3947 111.128 95.5734 110.899 94.9334 110.44C94.304 109.971 93.952 109.336 93.8774 108.536H95.0294C95.0827 109.027 95.312 109.427 95.7174 109.736C96.1334 110.035 96.688 110.184 97.3814 110.184C97.9894 110.184 98.464 110.04 98.8054 109.752C99.1574 109.464 99.3334 109.107 99.3334 108.68C99.3334 108.381 99.2374 108.136 99.0454 107.944C98.8534 107.752 98.608 107.603 98.3094 107.496C98.0214 107.379 97.6267 107.256 97.1254 107.128C96.4747 106.957 95.9467 106.787 95.5414 106.616C95.136 106.445 94.7894 106.195 94.5014 105.864C94.224 105.523 94.0854 105.069 94.0854 104.504C94.0854 104.077 94.2134 103.683 94.4694 103.32C94.7254 102.957 95.088 102.669 95.5574 102.456C96.0267 102.243 96.56 102.136 97.1574 102.136C98.096 102.136 98.8534 102.376 99.4294 102.856C100.005 103.325 100.315 103.976 100.357 104.808H99.2374C99.2054 104.296 99.0027 103.885 98.6294 103.576C98.2667 103.256 97.7654 103.096 97.1254 103.096C96.56 103.096 96.1014 103.229 95.7494 103.496C95.3974 103.763 95.2214 104.093 95.2214 104.488C95.2214 104.829 95.3227 105.112 95.5254 105.336C95.7387 105.549 96 105.72 96.3094 105.848C96.6187 105.965 97.0347 106.099 97.5574 106.248C98.1867 106.419 98.688 106.584 99.0614 106.744C99.4347 106.904 99.7547 107.139 100.021 107.448C100.288 107.757 100.427 108.168 100.437 108.68C100.437 109.149 100.309 109.571 100.053 109.944C99.7974 110.307 99.44 110.595 98.9814 110.808C98.5227 111.021 97.9947 111.128 97.3974 111.128Z" fill="#EEEEEE"/>
</svg>
