<svg width="145" height="130" viewBox="0 0 145 130" fill="none" xmlns="http://www.w3.org/2000/svg">
<rect width="145" height="130" fill="#5F5F5F"/>
<path d="M64.584 99.816V111H63.464V105.768H57.4V111H56.28V99.816H57.4V104.84H63.464V99.816H64.584ZM68.5954 103.208V108.632C68.5954 109.165 68.6967 109.533 68.8994 109.736C69.102 109.939 69.4594 110.04 69.9714 110.04H70.9954V111H69.7954C69.006 111 68.4194 110.819 68.0354 110.456C67.6514 110.083 67.4594 109.475 67.4594 108.632V103.208H66.2434V102.264H67.4594V100.072H68.5954V102.264H70.9954V103.208H68.5954ZM83.2425 102.104C84.2665 102.104 85.0985 102.429 85.7385 103.08C86.3892 103.72 86.7145 104.653 86.7145 105.88V111H85.6105V106.008C85.6105 105.059 85.3812 104.333 84.9225 103.832C84.4638 103.331 83.8398 103.08 83.0505 103.08C82.2292 103.08 81.5732 103.352 81.0825 103.896C80.5918 104.44 80.3465 105.229 80.3465 106.264V111H79.2425V106.008C79.2425 105.059 79.0132 104.333 78.5545 103.832C78.0958 103.331 77.4665 103.08 76.6665 103.08C75.8452 103.08 75.1892 103.352 74.6985 103.896C74.2078 104.44 73.9625 105.229 73.9625 106.264V111H72.8425V102.264H73.9625V103.768C74.2398 103.224 74.6345 102.813 75.1465 102.536C75.6585 102.248 76.2292 102.104 76.8585 102.104C77.6158 102.104 78.2772 102.285 78.8425 102.648C79.4185 103.011 79.8345 103.544 80.0905 104.248C80.3252 103.555 80.7252 103.027 81.2905 102.664C81.8665 102.291 82.5172 102.104 83.2425 102.104ZM90.3219 99.16V111H89.2019V99.16H90.3219Z" fill="#EEEEEE"/>
<path d="M53.1786 86.2321L49 34H99.1429L94.9643 86.2321L74.0714 92.5L53.1786 86.2321Z" fill="#E44D26"/>
<path d="M94.9643 38.1786H74.0714V89.3661L90.7857 84.1428L94.9643 38.1786Z" fill="#F16529"/>
<path d="M60.4911 64.2947L58.4018 44.4464H90.7857L89.7411 50.7143H64.6697L65.7143 58.0268H88.6964L86.6072 77.875L74.0714 82.0536L61.5357 77.875L60.4911 67.4286H66.7589L67.8036 72.6518L74.0714 74.7411L80.3393 72.6518L81.3839 64.2947H60.4911Z" fill="white"/>
</svg>
