<svg width="145" height="130" viewBox="0 0 145 130" fill="none" xmlns="http://www.w3.org/2000/svg">
<rect width="145" height="130" fill="#5F5F5F"/>
<path d="M40.448 99.816V108.28C40.448 109.133 40.1867 109.821 39.664 110.344C39.1413 110.856 38.4427 111.112 37.568 111.112C36.6613 111.112 35.936 110.84 35.392 110.296C34.8587 109.741 34.592 108.995 34.592 108.056H35.728C35.7387 108.664 35.888 109.16 36.176 109.544C36.4747 109.928 36.9387 110.12 37.568 110.12C38.1653 110.12 38.608 109.944 38.896 109.592C39.184 109.24 39.328 108.803 39.328 108.28V99.816H40.448ZM42.7524 106.616C42.7524 105.72 42.9284 104.936 43.2804 104.264C43.643 103.581 44.139 103.059 44.7684 102.696C45.4084 102.323 46.1284 102.136 46.9284 102.136C47.7604 102.136 48.475 102.328 49.0724 102.712C49.6804 103.096 50.1177 103.587 50.3844 104.184V102.264H51.5044V111H50.3844V109.064C50.107 109.661 49.6644 110.157 49.0564 110.552C48.459 110.936 47.7444 111.128 46.9124 111.128C46.123 111.128 45.4084 110.941 44.7684 110.568C44.139 110.195 43.643 109.667 43.2804 108.984C42.9284 108.301 42.7524 107.512 42.7524 106.616ZM50.3844 106.632C50.3844 105.928 50.2404 105.309 49.9524 104.776C49.6644 104.243 49.2697 103.832 48.7684 103.544C48.2777 103.256 47.7337 103.112 47.1364 103.112C46.5177 103.112 45.963 103.251 45.4724 103.528C44.9817 103.805 44.5924 104.211 44.3044 104.744C44.027 105.267 43.8884 105.891 43.8884 106.616C43.8884 107.331 44.027 107.96 44.3044 108.504C44.5924 109.037 44.9817 109.448 45.4724 109.736C45.963 110.013 46.5177 110.152 47.1364 110.152C47.7337 110.152 48.2777 110.008 48.7684 109.72C49.2697 109.432 49.6644 109.021 49.9524 108.488C50.2404 107.955 50.3844 107.336 50.3844 106.632ZM57.1653 109.912L60.1093 102.264H61.2933L57.7893 111H56.5253L53.0213 102.264H54.2213L57.1653 109.912ZM62.2993 106.616C62.2993 105.72 62.4753 104.936 62.8273 104.264C63.1899 103.581 63.6859 103.059 64.3153 102.696C64.9553 102.323 65.6753 102.136 66.4753 102.136C67.3073 102.136 68.0219 102.328 68.6193 102.712C69.2273 103.096 69.6646 103.587 69.9313 104.184V102.264H71.0513V111H69.9313V109.064C69.6539 109.661 69.2113 110.157 68.6033 110.552C68.0059 110.936 67.2913 111.128 66.4593 111.128C65.6699 111.128 64.9553 110.941 64.3153 110.568C63.6859 110.195 63.1899 109.667 62.8273 108.984C62.4753 108.301 62.2993 107.512 62.2993 106.616ZM69.9313 106.632C69.9313 105.928 69.7873 105.309 69.4993 104.776C69.2113 104.243 68.8166 103.832 68.3153 103.544C67.8246 103.256 67.2806 103.112 66.6833 103.112C66.0646 103.112 65.5099 103.251 65.0193 103.528C64.5286 103.805 64.1393 104.211 63.8513 104.744C63.5739 105.267 63.4353 105.891 63.4353 106.616C63.4353 107.331 63.5739 107.96 63.8513 108.504C64.1393 109.037 64.5286 109.448 65.0193 109.736C65.5099 110.013 66.0646 110.152 66.6833 110.152C67.2806 110.152 67.8246 110.008 68.3153 109.72C68.8166 109.432 69.2113 109.021 69.4993 108.488C69.7873 107.955 69.9313 107.336 69.9313 106.632ZM76.6161 111.128C75.6135 111.128 74.7921 110.899 74.1521 110.44C73.5228 109.971 73.1708 109.336 73.0961 108.536H74.2481C74.3015 109.027 74.5308 109.427 74.9361 109.736C75.3521 110.035 75.9068 110.184 76.6001 110.184C77.2081 110.184 77.6828 110.04 78.0241 109.752C78.3761 109.464 78.5521 109.107 78.5521 108.68C78.5521 108.381 78.4561 108.136 78.2641 107.944C78.0721 107.752 77.8268 107.603 77.5281 107.496C77.2401 107.379 76.8455 107.256 76.3441 107.128C75.6935 106.957 75.1655 106.787 74.7601 106.616C74.3548 106.445 74.0081 106.195 73.7201 105.864C73.4428 105.523 73.3041 105.069 73.3041 104.504C73.3041 104.077 73.4321 103.683 73.6881 103.32C73.9441 102.957 74.3068 102.669 74.7761 102.456C75.2455 102.243 75.7788 102.136 76.3761 102.136C77.3148 102.136 78.0721 102.376 78.6481 102.856C79.2241 103.325 79.5335 103.976 79.5761 104.808H78.4561C78.4241 104.296 78.2215 103.885 77.8481 103.576C77.4855 103.256 76.9841 103.096 76.3441 103.096C75.7788 103.096 75.3201 103.229 74.9681 103.496C74.6161 103.763 74.4401 104.093 74.4401 104.488C74.4401 104.829 74.5415 105.112 74.7441 105.336C74.9575 105.549 75.2188 105.72 75.5281 105.848C75.8375 105.965 76.2535 106.099 76.7761 106.248C77.4055 106.419 77.9068 106.584 78.2801 106.744C78.6535 106.904 78.9735 107.139 79.2401 107.448C79.5068 107.757 79.6455 108.168 79.6561 108.68C79.6561 109.149 79.5281 109.571 79.2721 109.944C79.0161 110.307 78.6588 110.595 78.2001 110.808C77.7415 111.021 77.2135 111.128 76.6161 111.128ZM81.2524 106.632C81.2524 105.725 81.4337 104.936 81.7964 104.264C82.159 103.581 82.6604 103.059 83.3004 102.696C83.9404 102.323 84.671 102.136 85.4924 102.136C86.5697 102.136 87.455 102.403 88.1484 102.936C88.8524 103.469 89.3057 104.195 89.5084 105.112H88.3084C88.159 104.483 87.8337 103.992 87.3324 103.64C86.8417 103.277 86.2284 103.096 85.4924 103.096C84.9057 103.096 84.3777 103.229 83.9084 103.496C83.439 103.763 83.0657 104.163 82.7884 104.696C82.5217 105.219 82.3884 105.864 82.3884 106.632C82.3884 107.4 82.5217 108.051 82.7884 108.584C83.0657 109.117 83.439 109.517 83.9084 109.784C84.3777 110.051 84.9057 110.184 85.4924 110.184C86.2284 110.184 86.8417 110.008 87.3324 109.656C87.8337 109.293 88.159 108.792 88.3084 108.152H89.5084C89.3057 109.048 88.8524 109.768 88.1484 110.312C87.4444 110.856 86.559 111.128 85.4924 111.128C84.671 111.128 83.9404 110.947 83.3004 110.584C82.6604 110.211 82.159 109.688 81.7964 109.016C81.4337 108.333 81.2524 107.539 81.2524 106.632ZM92.6969 103.816C92.9422 103.272 93.3155 102.851 93.8169 102.552C94.3289 102.253 94.9529 102.104 95.6889 102.104V103.272H95.3849C94.5742 103.272 93.9235 103.491 93.4329 103.928C92.9422 104.365 92.6969 105.096 92.6969 106.12V111H91.5769V102.264H92.6969V103.816ZM97.9338 100.616C97.7098 100.616 97.5178 100.536 97.3578 100.376C97.1978 100.216 97.1178 100.019 97.1178 99.784C97.1178 99.5493 97.1978 99.3573 97.3578 99.208C97.5178 99.048 97.7098 98.968 97.9338 98.968C98.1578 98.968 98.3498 99.048 98.5098 99.208C98.6698 99.3573 98.7498 99.5493 98.7498 99.784C98.7498 100.019 98.6698 100.216 98.5098 100.376C98.3498 100.536 98.1578 100.616 97.9338 100.616ZM98.4938 102.264V111H97.3738V102.264H98.4938ZM102.134 104.184C102.411 103.597 102.849 103.112 103.446 102.728C104.054 102.333 104.774 102.136 105.606 102.136C106.395 102.136 107.105 102.323 107.734 102.696C108.374 103.059 108.87 103.581 109.222 104.264C109.585 104.936 109.766 105.72 109.766 106.616C109.766 107.512 109.585 108.301 109.222 108.984C108.87 109.667 108.374 110.195 107.734 110.568C107.105 110.941 106.395 111.128 105.606 111.128C104.785 111.128 104.07 110.936 103.462 110.552C102.854 110.157 102.411 109.667 102.134 109.08V115.128H101.03V102.264H102.134V104.184ZM108.63 106.616C108.63 105.891 108.486 105.267 108.198 104.744C107.921 104.211 107.537 103.805 107.046 103.528C106.555 103.251 106.001 103.112 105.382 103.112C104.785 103.112 104.235 103.256 103.734 103.544C103.243 103.832 102.854 104.243 102.566 104.776C102.278 105.309 102.134 105.928 102.134 106.632C102.134 107.336 102.278 107.955 102.566 108.488C102.854 109.021 103.243 109.432 103.734 109.72C104.235 110.008 104.785 110.152 105.382 110.152C106.001 110.152 106.555 110.013 107.046 109.736C107.537 109.448 107.921 109.037 108.198 108.504C108.486 107.96 108.63 107.331 108.63 106.616ZM113.283 103.208V108.632C113.283 109.165 113.384 109.533 113.587 109.736C113.79 109.939 114.147 110.04 114.659 110.04H115.683V111H114.483C113.694 111 113.107 110.819 112.723 110.456C112.339 110.083 112.147 109.475 112.147 108.632V103.208H110.931V102.264H112.147V100.072H113.283V102.264H115.683V103.208H113.283Z" fill="#EEEEEE"/>
<path d="M43 35H103V95H43V35Z" fill="#F7DF1E"/>
<path d="M58.7762 85.1404L63.3678 82.3616C64.2536 83.9322 65.0594 85.261 66.9923 85.261C68.845 85.261 70.0131 84.5363 70.0131 81.7172V62.5458H75.6516V81.7969C75.6516 87.6369 72.2284 90.2951 67.234 90.2951C62.7234 90.2951 60.1051 87.959 58.7761 85.1399" fill="black"/>
<path d="M78.7143 84.5362L83.3053 81.878C84.5139 83.8517 86.0847 85.3015 88.8635 85.3015C91.1998 85.3015 92.6896 84.1334 92.6896 82.5224C92.6896 80.5891 91.1592 79.9044 88.5815 78.777L87.1723 78.1725C83.1042 76.4409 80.4056 74.2661 80.4056 69.6746C80.4056 65.4456 83.6276 62.2234 88.6623 62.2234C92.2469 62.2234 94.8245 63.4721 96.677 66.7345L92.2869 69.5536C91.3202 67.8219 90.2733 67.1373 88.6624 67.1373C87.011 67.1373 85.9638 68.1845 85.9638 69.5536C85.9638 71.2452 87.011 71.9301 89.4273 72.9773L90.8369 73.5814C95.6297 75.6356 98.3283 77.7297 98.3283 82.4418C98.3283 87.5168 94.3411 90.2956 88.9845 90.2956C83.7487 90.2956 80.3653 87.7987 78.7143 84.5362Z" fill="black"/>
</svg>
