<svg width="146" height="130" viewBox="0 0 146 130" fill="none" xmlns="http://www.w3.org/2000/svg">
<rect width="146" height="130" fill="#5F5F5F"/>
<path d="M47.208 99.96V111H46.088V102.184L42.152 111H41.336L37.4 102.216V111H36.28V99.96H37.464L41.736 109.528L46.008 99.96H47.208ZM53.5728 111.128C52.7514 111.128 52.0101 110.947 51.3488 110.584C50.6981 110.211 50.1808 109.688 49.7968 109.016C49.4234 108.333 49.2368 107.539 49.2368 106.632C49.2368 105.725 49.4288 104.936 49.8128 104.264C50.1968 103.581 50.7194 103.059 51.3808 102.696C52.0421 102.323 52.7834 102.136 53.6048 102.136C54.4261 102.136 55.1674 102.323 55.8288 102.696C56.5008 103.059 57.0234 103.581 57.3968 104.264C57.7808 104.936 57.9728 105.725 57.9728 106.632C57.9728 107.528 57.7808 108.317 57.3968 109C57.0128 109.683 56.4848 110.211 55.8128 110.584C55.1408 110.947 54.3941 111.128 53.5728 111.128ZM53.5728 110.152C54.1488 110.152 54.6821 110.024 55.1728 109.768C55.6634 109.501 56.0581 109.107 56.3568 108.584C56.6661 108.051 56.8208 107.4 56.8208 106.632C56.8208 105.864 56.6714 105.219 56.3728 104.696C56.0741 104.163 55.6794 103.768 55.1888 103.512C54.6981 103.245 54.1648 103.112 53.5888 103.112C53.0128 103.112 52.4794 103.245 51.9888 103.512C51.4981 103.768 51.1034 104.163 50.8048 104.696C50.5168 105.219 50.3728 105.864 50.3728 106.632C50.3728 107.4 50.5168 108.051 50.8048 108.584C51.1034 109.107 51.4928 109.501 51.9728 109.768C52.4634 110.024 52.9968 110.152 53.5728 110.152ZM64.1104 102.104C65.1557 102.104 66.009 102.429 66.6704 103.08C67.3317 103.72 67.6624 104.653 67.6624 105.88V111H66.5584V106.008C66.5584 105.059 66.3184 104.333 65.8384 103.832C65.369 103.331 64.7237 103.08 63.9024 103.08C63.0597 103.08 62.3877 103.347 61.8864 103.88C61.385 104.413 61.1344 105.197 61.1344 106.232V111H60.0144V102.264H61.1344V103.752C61.4117 103.219 61.8117 102.813 62.3344 102.536C62.857 102.248 63.449 102.104 64.1104 102.104ZM73.8034 102.136C74.6247 102.136 75.3394 102.328 75.9474 102.712C76.5554 103.096 76.9927 103.581 77.2594 104.168V102.264H78.3794V111.224C78.3794 112.024 78.2034 112.733 77.8514 113.352C77.51 113.971 77.03 114.445 76.4114 114.776C75.7927 115.117 75.0887 115.288 74.2994 115.288C73.1794 115.288 72.246 115.021 71.4994 114.488C70.7634 113.955 70.3047 113.229 70.1234 112.312H71.2274C71.4194 112.92 71.782 113.405 72.3154 113.768C72.8594 114.131 73.5207 114.312 74.2994 114.312C74.8647 114.312 75.3714 114.189 75.8194 113.944C76.2674 113.709 76.6194 113.357 76.8754 112.888C77.1314 112.419 77.2594 111.864 77.2594 111.224V109.064C76.982 109.661 76.5394 110.157 75.9314 110.552C75.334 110.936 74.6247 111.128 73.8034 111.128C73.0034 111.128 72.2834 110.941 71.6434 110.568C71.014 110.195 70.518 109.667 70.1554 108.984C69.8034 108.301 69.6274 107.512 69.6274 106.616C69.6274 105.72 69.8034 104.936 70.1554 104.264C70.518 103.581 71.014 103.059 71.6434 102.696C72.2834 102.323 73.0034 102.136 73.8034 102.136ZM77.2594 106.632C77.2594 105.928 77.1154 105.309 76.8274 104.776C76.5394 104.243 76.1447 103.832 75.6434 103.544C75.1527 103.256 74.6087 103.112 74.0114 103.112C73.3927 103.112 72.838 103.251 72.3474 103.528C71.8567 103.805 71.4674 104.211 71.1794 104.744C70.902 105.267 70.7634 105.891 70.7634 106.616C70.7634 107.331 70.902 107.96 71.1794 108.504C71.4674 109.037 71.8567 109.448 72.3474 109.736C72.838 110.013 73.3927 110.152 74.0114 110.152C74.6087 110.152 75.1527 110.008 75.6434 109.72C76.1447 109.432 76.5394 109.021 76.8274 108.488C77.1154 107.955 77.2594 107.336 77.2594 106.632ZM84.7603 111.128C83.9389 111.128 83.1976 110.947 82.5363 110.584C81.8856 110.211 81.3683 109.688 80.9843 109.016C80.6109 108.333 80.4243 107.539 80.4243 106.632C80.4243 105.725 80.6163 104.936 81.0003 104.264C81.3843 103.581 81.9069 103.059 82.5683 102.696C83.2296 102.323 83.9709 102.136 84.7923 102.136C85.6136 102.136 86.3549 102.323 87.0163 102.696C87.6883 103.059 88.2109 103.581 88.5843 104.264C88.9683 104.936 89.1603 105.725 89.1603 106.632C89.1603 107.528 88.9683 108.317 88.5843 109C88.2003 109.683 87.6723 110.211 87.0003 110.584C86.3283 110.947 85.5816 111.128 84.7603 111.128ZM84.7603 110.152C85.3363 110.152 85.8696 110.024 86.3603 109.768C86.8509 109.501 87.2456 109.107 87.5443 108.584C87.8536 108.051 88.0083 107.4 88.0083 106.632C88.0083 105.864 87.8589 105.219 87.5603 104.696C87.2616 104.163 86.8669 103.768 86.3763 103.512C85.8856 103.245 85.3523 103.112 84.7763 103.112C84.2003 103.112 83.6669 103.245 83.1763 103.512C82.6856 103.768 82.2909 104.163 81.9923 104.696C81.7043 105.219 81.5603 105.864 81.5603 106.632C81.5603 107.4 81.7043 108.051 81.9923 108.584C82.2909 109.107 82.6803 109.501 83.1603 109.768C83.6509 110.024 84.1843 110.152 84.7603 110.152ZM94.5139 99.816C95.7512 99.816 96.8125 100.04 97.6979 100.488C98.5832 100.936 99.2605 101.581 99.7299 102.424C100.199 103.267 100.434 104.269 100.434 105.432C100.434 106.584 100.199 107.581 99.7299 108.424C99.2605 109.256 98.5832 109.896 97.6979 110.344C96.8125 110.781 95.7512 111 94.5139 111H91.2019V99.816H94.5139ZM94.5139 110.072C96.0712 110.072 97.2552 109.667 98.0659 108.856C98.8872 108.035 99.2979 106.893 99.2979 105.432C99.2979 103.96 98.8872 102.813 98.0659 101.992C97.2552 101.16 96.0712 100.744 94.5139 100.744H92.3219V110.072H94.5139ZM107.731 105.224C108.36 105.341 108.893 105.661 109.331 106.184C109.768 106.707 109.987 107.315 109.987 108.008C109.987 108.573 109.843 109.085 109.555 109.544C109.277 109.992 108.867 110.349 108.323 110.616C107.779 110.872 107.128 111 106.371 111H102.499V99.816H106.259C107.389 99.816 108.248 100.077 108.835 100.6C109.432 101.123 109.731 101.8 109.731 102.632C109.731 103.325 109.544 103.891 109.171 104.328C108.797 104.755 108.317 105.053 107.731 105.224ZM103.619 104.76H106.227C106.984 104.76 107.565 104.584 107.971 104.232C108.387 103.869 108.595 103.373 108.595 102.744C108.595 102.125 108.387 101.64 107.971 101.288C107.565 100.936 106.968 100.76 106.179 100.76H103.619V104.76ZM106.291 110.056C107.101 110.056 107.731 109.864 108.179 109.48C108.637 109.096 108.867 108.568 108.867 107.896C108.867 107.224 108.627 106.691 108.147 106.296C107.677 105.891 107.043 105.688 106.243 105.688H103.619V110.056H106.291Z" fill="#EEEEEE"/>
<path d="M73.9653 91.5L72.5572 91.0331C72.5572 91.0331 72.7447 83.9081 70.1665 83.4075C68.479 81.4425 70.4159 -0.48185 76.5847 83.1281C75.4143 83.7218 74.5187 84.745 74.0853 85.9838C73.853 87.8133 73.8128 89.6621 73.9653 91.5Z" fill="url(#paint0_linear_3_255)"/>
<path d="M74.7265 84.6169C78.4757 81.7946 81.3469 77.9662 83.0065 73.5767C84.666 69.1872 85.0457 64.4168 84.1015 59.82C81.3452 47.6607 74.8184 43.6632 74.1152 42.1369C73.5086 41.1865 72.9908 40.1823 72.5684 39.1369L73.0877 73.0163C73.0877 73.0163 72.0115 83.37 74.7265 84.6169Z" fill="url(#paint1_linear_3_255)"/>
<path d="M71.8408 85.0669C71.8408 85.0669 60.364 77.25 61.0277 63.4219C61.0896 59.2531 62.0455 55.1461 63.8307 51.3784C65.6159 47.6107 68.1889 44.27 71.3758 41.5819C71.7483 41.2655 72.0442 40.8688 72.2413 40.4216C72.4384 39.9744 72.5316 39.4884 72.514 39C73.2283 40.5375 73.1121 61.9556 73.1871 64.4606C73.4777 74.205 72.6452 83.2275 71.8408 85.0669Z" fill="url(#paint2_linear_3_255)"/>
<defs>
<linearGradient id="paint0_linear_3_255" x1="64.4996" y1="65.7231" x2="80.684" y2="71.2152" gradientUnits="userSpaceOnUse">
<stop offset="0.231" stop-color="#999875"/>
<stop offset="0.563" stop-color="#9B9977"/>
<stop offset="0.683" stop-color="#A09F7E"/>
<stop offset="0.768" stop-color="#A9A889"/>
<stop offset="0.837" stop-color="#B7B69A"/>
<stop offset="0.896" stop-color="#C9C7B0"/>
<stop offset="0.948" stop-color="#DEDDCB"/>
<stop offset="0.994" stop-color="#F8F6EB"/>
<stop offset="1" stop-color="#FBF9EF"/>
</linearGradient>
<linearGradient id="paint1_linear_3_255" x1="70.4345" y1="38.8948" x2="77.5896" y2="83.5741" gradientUnits="userSpaceOnUse">
<stop stop-color="#48A547"/>
<stop offset="1" stop-color="#3F9143"/>
</linearGradient>
<linearGradient id="paint2_linear_3_255" x1="60.0405" y1="64.7907" x2="79.2416" y2="58.3602" gradientUnits="userSpaceOnUse">
<stop stop-color="#41A247"/>
<stop offset="0.352" stop-color="#4BA74B"/>
<stop offset="0.956" stop-color="#67B554"/>
<stop offset="1" stop-color="#69B655"/>
</linearGradient>
</defs>
</svg>
