<svg width="145" height="130" viewBox="0 0 145 130" fill="none" xmlns="http://www.w3.org/2000/svg">
<rect width="145" height="130" fill="#5F5F5F"/>
<path d="M58.232 111L55.464 106.328H53.4V111H52.28V99.816H55.64C56.888 99.816 57.832 100.115 58.472 100.712C59.1227 101.309 59.448 102.093 59.448 103.064C59.448 103.875 59.2133 104.568 58.744 105.144C58.2853 105.709 57.6027 106.077 56.696 106.248L59.576 111H58.232ZM53.4 105.416H55.656C56.5307 105.416 57.1867 105.203 57.624 104.776C58.072 104.349 58.296 103.779 58.296 103.064C58.296 102.328 58.0827 101.763 57.656 101.368C57.2293 100.963 56.5573 100.76 55.64 100.76H53.4V105.416ZM69.5746 106.184C69.5746 106.568 69.564 106.861 69.5426 107.064H62.2946C62.3266 107.725 62.4866 108.291 62.7746 108.76C63.0626 109.229 63.4413 109.587 63.9106 109.832C64.38 110.067 64.892 110.184 65.4466 110.184C66.172 110.184 66.78 110.008 67.2706 109.656C67.772 109.304 68.1026 108.829 68.2626 108.232H69.4466C69.2333 109.085 68.7746 109.784 68.0706 110.328C67.3773 110.861 66.5026 111.128 65.4466 111.128C64.6253 111.128 63.8893 110.947 63.2386 110.584C62.588 110.211 62.076 109.688 61.7026 109.016C61.34 108.333 61.1586 107.539 61.1586 106.632C61.1586 105.725 61.34 104.931 61.7026 104.248C62.0653 103.565 62.572 103.043 63.2226 102.68C63.8733 102.317 64.6146 102.136 65.4466 102.136C66.2786 102.136 67.004 102.317 67.6226 102.68C68.252 103.043 68.732 103.533 69.0626 104.152C69.404 104.76 69.5746 105.437 69.5746 106.184ZM68.4386 106.152C68.4493 105.501 68.316 104.947 68.0386 104.488C67.772 104.029 67.404 103.683 66.9346 103.448C66.4653 103.213 65.9533 103.096 65.3986 103.096C64.5666 103.096 63.8573 103.363 63.2706 103.896C62.684 104.429 62.3586 105.181 62.2946 106.152H68.4386ZM71.1118 106.616C71.1118 105.72 71.2878 104.936 71.6398 104.264C72.0024 103.581 72.4984 103.059 73.1278 102.696C73.7678 102.323 74.4878 102.136 75.2878 102.136C76.1198 102.136 76.8344 102.328 77.4318 102.712C78.0398 103.096 78.4771 103.587 78.7438 104.184V102.264H79.8638V111H78.7438V109.064C78.4664 109.661 78.0238 110.157 77.4158 110.552C76.8184 110.936 76.1038 111.128 75.2718 111.128C74.4824 111.128 73.7678 110.941 73.1278 110.568C72.4984 110.195 72.0024 109.667 71.6398 108.984C71.2878 108.301 71.1118 107.512 71.1118 106.616ZM78.7438 106.632C78.7438 105.928 78.5998 105.309 78.3118 104.776C78.0238 104.243 77.6291 103.832 77.1278 103.544C76.6371 103.256 76.0931 103.112 75.4958 103.112C74.8771 103.112 74.3224 103.251 73.8318 103.528C73.3411 103.805 72.9518 104.211 72.6638 104.744C72.3864 105.267 72.2478 105.891 72.2478 106.616C72.2478 107.331 72.3864 107.96 72.6638 108.504C72.9518 109.037 73.3411 109.448 73.8318 109.736C74.3224 110.013 74.8771 110.152 75.4958 110.152C76.0931 110.152 76.6371 110.008 77.1278 109.72C77.6291 109.432 78.0238 109.021 78.3118 108.488C78.5998 107.955 78.7438 107.336 78.7438 106.632ZM81.9086 106.632C81.9086 105.725 82.09 104.936 82.4526 104.264C82.8153 103.581 83.3166 103.059 83.9566 102.696C84.5966 102.323 85.3273 102.136 86.1486 102.136C87.226 102.136 88.1113 102.403 88.8046 102.936C89.5086 103.469 89.962 104.195 90.1646 105.112H88.9646C88.8153 104.483 88.49 103.992 87.9886 103.64C87.498 103.277 86.8846 103.096 86.1486 103.096C85.562 103.096 85.034 103.229 84.5646 103.496C84.0953 103.763 83.722 104.163 83.4446 104.696C83.178 105.219 83.0446 105.864 83.0446 106.632C83.0446 107.4 83.178 108.051 83.4446 108.584C83.722 109.117 84.0953 109.517 84.5646 109.784C85.034 110.051 85.562 110.184 86.1486 110.184C86.8846 110.184 87.498 110.008 87.9886 109.656C88.49 109.293 88.8153 108.792 88.9646 108.152H90.1646C89.962 109.048 89.5086 109.768 88.8046 110.312C88.1006 110.856 87.2153 111.128 86.1486 111.128C85.3273 111.128 84.5966 110.947 83.9566 110.584C83.3166 110.211 82.8153 109.688 82.4526 109.016C82.09 108.333 81.9086 107.539 81.9086 106.632ZM93.6891 103.208V108.632C93.6891 109.165 93.7905 109.533 93.9931 109.736C94.1958 109.939 94.5531 110.04 95.0651 110.04H96.0891V111H94.8891C94.0998 111 93.5131 110.819 93.1291 110.456C92.7451 110.083 92.5531 109.475 92.5531 108.632V103.208H91.3371V102.264H92.5531V100.072H93.6891V102.264H96.0891V103.208H93.6891Z" fill="#EEEEEE"/>
<path d="M79.5477 64.8252C79.5477 61.8599 77.0684 59.4556 74.0096 59.4556C70.9512 59.4556 68.4715 61.8599 68.4715 64.8252C68.4715 67.791 70.9512 70.1951 74.0096 70.1951C77.0684 70.1951 79.5477 67.791 79.5477 64.8252Z" fill="#53C1DE"/>
<path fill-rule="evenodd" clip-rule="evenodd" d="M91.996 54.8562C93.1655 50.2483 94.6356 41.7035 89.4532 38.8066C84.2951 35.9222 77.5828 41.4492 74.0384 44.7667C70.5043 41.4822 63.6034 35.9789 58.4255 38.8851C53.2694 41.7791 54.8594 50.1822 56.0548 54.819C51.2451 56.1435 43 58.9964 43 64.8252C43 70.6374 51.2365 73.7413 56.0178 75.0645C54.8179 79.7269 53.3075 88.01 58.4702 90.8976C63.6675 93.8032 70.5469 88.4309 74.1241 85.0771C77.6913 88.4142 84.3391 93.8216 89.4983 90.926C94.6736 88.0212 93.3257 79.5909 92.1302 74.9273C96.7651 73.6011 105.019 70.5648 105.019 64.8252C105.019 59.0524 96.7299 56.1764 91.996 54.8562ZM91.4085 72.4558C90.6235 70.0466 89.564 67.4846 88.268 64.838C89.5051 62.2539 90.5235 59.7249 91.2865 57.3312C94.7569 58.3067 102.37 60.5363 102.37 64.8252C102.37 69.1543 95.0643 71.405 91.4085 72.4558ZM88.1707 88.7028C84.3213 90.8631 78.6034 85.692 75.969 83.2345C77.7167 81.3812 79.4632 79.2267 81.1677 76.8342C84.1661 76.5764 86.9985 76.1546 89.5673 75.5789C90.4087 78.8777 92.037 86.5327 88.1707 88.7028ZM59.794 88.672C55.9443 86.5197 57.7039 79.1283 58.5866 75.6938C61.1269 76.2388 63.9389 76.6307 66.9444 76.867C68.66 79.2081 70.4572 81.3599 72.2681 83.2445C70.0307 85.343 63.6617 90.8342 59.794 88.672ZM45.6492 64.8252C45.6492 60.4799 53.2168 58.2664 56.7663 57.2934C57.5425 59.7408 58.5605 62.3 59.7891 64.8878C58.5446 67.5141 57.512 70.1138 56.7287 72.5902C53.3442 71.6508 45.6492 69.1731 45.6492 64.8252ZM59.7528 41.1083C63.6183 38.9389 69.616 44.2222 72.1819 46.6003C70.3803 48.4762 68.5997 50.6118 66.8987 52.9394C63.9819 53.2015 61.1897 53.6224 58.6228 54.1864C57.6598 50.4467 55.8916 43.2753 59.7528 41.1083ZM83.063 55.7315C85.0418 55.9736 86.9377 56.2957 88.7179 56.6897C88.1835 58.3506 87.5174 60.0873 86.7329 61.8677C85.5956 59.7756 84.3749 57.7254 83.063 55.7315ZM74.0392 48.436C75.2612 49.7195 76.485 51.1528 77.689 52.7079C75.2469 52.5958 72.8009 52.5954 70.3588 52.7062C71.5638 51.1656 72.7982 49.7344 74.0392 48.436ZM61.3091 61.8658C60.5376 60.0917 59.8775 58.3473 59.3384 56.6626C61.1079 56.2787 62.995 55.9649 64.961 55.7267C63.6454 57.7163 62.4267 59.7656 61.3091 61.8658ZM65.0174 74.107C62.9865 73.8872 61.0709 73.5893 59.3019 73.216C59.8495 71.5018 60.5241 69.7197 61.3121 67.9073C62.4451 70.0294 63.6824 72.0986 65.0174 74.107ZM74.1126 81.3959C72.8569 80.0821 71.6043 78.629 70.3811 77.0661C72.837 77.1596 75.2978 77.1598 77.7535 77.0535C76.5458 78.6449 75.3263 80.1001 74.1126 81.3959ZM86.7581 67.8151C87.5871 69.6472 88.2858 71.4195 88.8409 73.1047C87.0425 73.5027 85.1011 73.8231 83.0555 74.0611C84.3772 72.0293 85.6173 69.9473 86.7581 67.8151ZM79.6891 74.3724C75.9324 74.6327 72.1523 74.6298 68.3944 74.3937C66.2591 71.3694 64.3582 68.1889 62.7174 64.887C64.3503 61.5919 66.2374 58.4176 68.3626 55.398C72.1232 55.1225 75.907 55.1216 79.6676 55.3997C81.7746 58.419 83.6588 61.5851 85.3296 64.8504C83.6786 68.1438 81.7817 71.3246 79.6891 74.3724ZM88.1299 41.0319C91.9964 43.1942 90.2754 50.8737 89.4307 54.2131C86.8577 53.6373 84.0636 53.209 81.1383 52.9427C79.434 50.59 77.6683 48.4506 75.8958 46.5989C78.4946 44.1697 84.3009 38.8908 88.1299 41.0319Z" fill="#53C1DE"/>
</svg>
